<?xml version="1.0" encoding="iso-8859-1"?>
<!-- Generator: Adobe Illustrator 18.0.0, SVG Export Plug-In . SVG Version: 6.00 Build 0)  -->
<!DOCTYPE svg PUBLIC "-//W3C//DTD SVG 1.1//EN" "http://www.w3.org/Graphics/SVG/1.1/DTD/svg11.dtd">
<svg version="1.1" id="Capa_1" xmlns="http://www.w3.org/2000/svg" xmlns:xlink="http://www.w3.org/1999/xlink" x="0px" y="0px"
	 viewBox="0 0 466.972 466.972" style="enable-background:new 0 0 466.972 466.972;" xml:space="preserve">
<g>
	<path d="M398.585,68.387C354.486,24.287,295.852,0,233.486,0s-121,24.287-165.1,68.387C24.288,112.486,0,171.119,0,233.485
		s24.287,121,68.386,165.1c44.1,44.1,102.733,68.387,165.1,68.387s121-24.287,165.1-68.387c44.099-44.1,68.386-102.733,68.386-165.1
		S442.684,112.486,398.585,68.387z M101.619,412.732c15.574-26.958,39.297-48.75,67.454-61.91
		c18.635,14.334,40.735,22.65,64.413,22.65c23.645,0,45.716-8.292,64.334-22.59c28.165,13.182,51.901,34.963,67.487,61.883
		c-37.977,28.048-83.733,43.207-131.821,43.207C185.379,455.972,139.605,440.801,101.619,412.732z M353.69,233.451
		c10.004,5.662,21.344,8.672,32.967,8.672c0.258,0,0.517-0.016,0.774-0.019c7.445,8.197,12.261,18.364,13.902,29.259
		c-20.623-1.201-39.268-13.853-47.865-32.87C353.567,236.82,353.639,235.138,353.69,233.451z M389.471,231.053
		c-12.9,0.637-25.547-3.157-35.871-10.727c-0.05-1.107-0.11-2.209-0.182-3.304c9.568-7.071,21.268-10.942,33.258-10.942
		c13.014,0,25.354,4.408,35.316,12.52C412.777,226.083,401.426,230.461,389.471,231.053z M124.192,228.097
		c0-6.772,0.42-13.314,1.241-19.607h216.106c0.821,6.294,1.241,12.835,1.241,19.607c0,2.819-0.08,5.616-0.219,8.393h-17.04
		c-1.385-4.935-4.145-9.438-8.029-12.921c-5.748-5.157-13.447-7.631-21.125-6.798l-43.58,4.746c-12.808,1.395-25.796,1.395-38.602,0
		l-43.58-4.746c-7.681-0.833-15.378,1.643-21.126,6.798c-3.884,3.484-6.643,7.986-8.029,12.921h-17.039
		C124.271,233.712,124.192,230.916,124.192,228.097z M127.333,197.489c4.637-21.309,14.351-39.27,28.755-52.854
		c19.442-18.335,46.206-28.026,77.398-28.026s57.956,9.691,77.397,28.026c14.405,13.584,24.119,31.545,28.756,52.854H127.333z
		 M315.539,243.835c0,8.946-7.278,16.225-16.225,16.225H167.657c-8.946,0-16.225-7.278-16.225-16.225
		c0-4.67,1.915-8.959,5.392-12.078c3.02-2.709,6.791-4.15,10.773-4.15c0.601,0,1.207,0.033,1.816,0.1l43.58,4.746
		c13.599,1.48,27.386,1.48,40.984,0l43.58-4.746c4.644-0.505,9.113,0.933,12.589,4.051
		C313.624,234.875,315.539,239.165,315.539,243.835z M140.684,247.489c1.792,13.289,13.2,23.57,26.972,23.57h131.657
		c13.772,0,25.181-10.281,26.972-23.57h15.351c-7.668,64.938-53.243,114.982-108.151,114.982s-100.483-50.044-108.151-114.982
		H140.684z M390.807,390.807c-5.359,5.359-10.947,10.407-16.735,15.144c-15.868-26.824-39.326-48.773-67.103-62.839
		c22.565-21.104,38.774-51.67,44.519-86.734c12.555,16.183,32.155,26.079,53.072,26.078c1.026,0,2.06-0.024,3.091-0.072
		c3.033-0.142,5.378-2.715,5.238-5.748c-0.602-13.037-4.98-25.48-12.492-35.943c12.683-2.644,24.386-8.909,33.685-18.201
		c1.032-1.031,1.612-2.431,1.612-3.891c0-1.459-0.58-2.859-1.612-3.891c-12.669-12.66-29.504-19.632-47.404-19.632
		c-12.222,0-24.193,3.373-34.555,9.605c-4.053-27.651-15.495-50.892-33.69-68.051c-21.215-20.006-51.382-31.023-84.945-31.023
		c-34.051,0-63.424,10.728-84.945,31.023c-23.125,21.808-35.349,53.436-35.349,91.464c0,46.708,18.326,88.335,46.741,114.95
		c-27.771,14.047-51.22,36.008-67.077,62.868c-5.773-4.726-11.345-9.762-16.691-15.108C34.143,348.785,11,292.913,11,233.485
		s23.143-115.299,65.164-157.32C118.187,34.143,174.058,11,233.486,11s115.299,23.143,157.321,65.165
		c42.021,42.021,65.164,97.893,65.164,157.32S432.829,348.785,390.807,390.807z"/>
	<g>
		<circle cx="171.225" cy="243.558" r="10.831"/>
		<circle cx="295.746" cy="243.558" r="10.831"/>
	</g>
</g>
<g>
</g>
<g>
</g>
<g>
</g>
<g>
</g>
<g>
</g>
<g>
</g>
<g>
</g>
<g>
</g>
<g>
</g>
<g>
</g>
<g>
</g>
<g>
</g>
<g>
</g>
<g>
</g>
<g>
</g>
</svg>
